<?xml version="1.0" encoding="utf-8"?>
<!-- Generator: Adobe Illustrator 17.1.0, SVG Export Plug-In . SVG Version: 6.00 Build 0)  -->
<!DOCTYPE svg PUBLIC "-//W3C//DTD SVG 1.1//EN" "http://www.w3.org/Graphics/SVG/1.1/DTD/svg11.dtd">
<svg version="1.1" id="Layer_1" xmlns="http://www.w3.org/2000/svg" xmlns:xlink="http://www.w3.org/1999/xlink" x="0px" y="0px"
	 viewBox="0 0 960 560" enable-background="new 0 0 960 560" xml:space="preserve">
<g>
	<path fill="none" stroke="#000000" stroke-width="3" stroke-miterlimit="10" d="M485.7,431.9l1.7-9
		C484.1,425,485.7,429,485.7,431.9z"/>
	<path fill="none" stroke="#000000" stroke-width="3" stroke-miterlimit="10" d="M490,408.1C489.9,407.9,489.9,407.9,490,408.1
		L490,408.1z"/>
	<path fill="none" stroke="#000000" stroke-width="3" stroke-miterlimit="10" d="M131.1,344.5c-0.2,0.7-0.4,1.5-0.5,2.4
		c0.8-1.3,1.4-2.6,2-4C131.8,343.2,131.3,343.7,131.1,344.5z"/>
	<path fill="none" stroke="#000000" stroke-width="3" stroke-miterlimit="10" d="M163.3,211.8c0,0.1,0,0.2,0,0.3
		C163.3,212,163.3,211.9,163.3,211.8z"/>
	<path fill="none" stroke="#000000" stroke-width="3" stroke-miterlimit="10" d="M127.4,335.9c-1.5,2.4-2.9,4.8-4.4,7.2
		C123.6,343,127.4,339.4,127.4,335.9z"/>
	<path fill="none" stroke="#000000" stroke-width="3" stroke-miterlimit="10" d="M487.4,422.4c-0.1-0.5,0.1-0.8,0.1,0.3
		C487.4,417,487.1,421,487.4,422.4z"/>
	<path fill="none" stroke="#000000" stroke-width="3" stroke-miterlimit="10" d="M490.2,408.9c0-0.1,0-0.1-0.1-0.2
		C490.2,408.8,490.2,408.8,490.2,408.9z"/>
	<path fill="none" stroke="#000000" stroke-width="3" stroke-miterlimit="10" d="M131,361.8c1-0.4,2-1.3,2.9-2.7c0,0,0,0,0,0
		c0.6-1,1.3-2.1,1.8-3.2C134.1,357.9,132.5,359.8,131,361.8z"/>
	<path fill="none" stroke="#000000" stroke-width="3" stroke-miterlimit="10" d="M487.4,422.5C487.4,422.5,487.4,422.5,487.4,422.5
		C487.4,422.5,487.4,422.5,487.4,422.5z"/>
	<path fill="none" stroke="#000000" stroke-width="3" stroke-miterlimit="10" d="M163.3,212.3c0,0.1,0,0.1,0,0.2
		C163.3,212.4,163.3,212.4,163.3,212.3z"/>
	<path fill="none" stroke="#000000" stroke-width="3" stroke-miterlimit="10" d="M354.5,283.4C354.5,283.4,354.5,283.4,354.5,283.4
		C354.5,283.4,354.5,283.4,354.5,283.4z"/>
	<path fill="none" stroke="#000000" stroke-width="3" stroke-miterlimit="10" d="M163.3,212.6C163.4,212.8,163.4,212.8,163.3,212.6
		L163.3,212.6z"/>
	<path fill="none" stroke="#000000" stroke-width="3" stroke-miterlimit="10" d="M354.6,285.5c0.8-0.4,1.2-1.1,1.1-2.1
		c-0.1,0.1,0,0,0,0c0.1-0.1,0.2-0.4,0.2-0.9L354.6,285.5z"/>
	<path fill="none" stroke="#000000" stroke-width="3" stroke-miterlimit="10" d="M351.6,291.8c0.8-0.7,1.4-1.9,1.8-3.7
		c-0.7,1.4-1.5,2.7-2.3,4.1C351.4,291.5,351.9,291.5,351.6,291.8z"/>
	<path fill="none" stroke="#000000" stroke-width="3" stroke-miterlimit="10" d="M402.6,298.5c1-2.7,1.9-5.6,2.6-8.6
		c-2.3,4.4-6.9,11.1-6.9,16.2C400.1,303.8,401.6,301.2,402.6,298.5z"/>
	<path fill="none" stroke="#000000" stroke-width="3" stroke-miterlimit="10" d="M402.3,299.3C402.3,299.3,402.3,299.3,402.3,299.3
		L402.3,299.3z"/>
	<path fill="none" stroke="#000000" stroke-width="3" stroke-miterlimit="10" d="M394.8,289.9C395.3,289.9,395.7,287.8,394.8,289.9
		L394.8,289.9z"/>
	<path fill="none" stroke="#000000" stroke-width="3" stroke-miterlimit="10" d="M392,294.9c1-1.2,0.7-2,0.7-2.3
		C392.3,293.3,392.1,294.1,392,294.9z"/>
	<path fill="none" stroke="#000000" stroke-width="3" stroke-miterlimit="10" d="M392,272.8c-17.5,5.3-27.1,30.2-29.4,46.4
		c3.9-0.7,7.2-2.5,10-5.4c-0.9,0.8-1.8,1.6,0,0C383.6,304,392.8,288,392,272.8z"/>
	<path fill="none" stroke="#000000" stroke-width="3" stroke-miterlimit="10" d="M487.4,422.7c0-0.1,0-0.1-0.1-0.2
		C487.4,422.6,487.4,422.7,487.4,422.7z"/>
	<path fill="none" stroke="#000000" stroke-width="3" stroke-miterlimit="10" d="M682,111.5C682.5,115.2,682,111.5,682,111.5
		L682,111.5z"/>
	<path fill="none" stroke="#000000" stroke-width="3" stroke-miterlimit="10" d="M607.8,187.7c1.8-1.1,3.6-3.2,5.4-6.3
		C610.5,184.3,609,184.7,607.8,187.7z"/>
	<path fill="none" stroke="#000000" stroke-width="3" stroke-miterlimit="10" d="M543.6,129.6C541.3,134.1,545,126.8,543.6,129.6
		c1.4-2.8,2.8-5.5,4.2-8.3c-4.3,5.9-9.9,14.4-10.8,21.8C539.1,138.6,541.3,134.1,543.6,129.6z"/>
	<path fill="none" stroke="#000000" stroke-width="3" stroke-miterlimit="10" d="M669.1,174.7c0,0,0-0.2,0-0.3c0,0,0,0,0,0
		C669.1,174.6,669.1,174.7,669.1,174.7z"/>
	<path fill="none" stroke="#000000" stroke-width="3" stroke-miterlimit="10" d="M669.1,174.4C669.1,174.4,669.1,174.4,669.1,174.4
		C669.1,174.4,669.1,174.4,669.1,174.4C669.1,174.4,669.1,174.4,669.1,174.4z"/>
	<path fill="none" stroke="#000000" stroke-width="3" stroke-miterlimit="10" d="M492,425c0.1,1.7-0.3,3.2-1.2,4.7
		c0.9-1.1,1.3-2.4,1.2-3.7C492.6,425,494.8,424.7,492,425z"/>
	<path fill="none" stroke="#000000" stroke-width="3" stroke-miterlimit="10" d="M133.9,359.1C133.9,359.1,133.9,359.1,133.9,359.1
		C134.2,358.7,134.1,358.9,133.9,359.1z"/>
	<path fill="none" stroke="#000000" stroke-width="3" stroke-miterlimit="10" d="M681,116.5C680.9,117.2,682.2,118.2,681,116.5
		L681,116.5z"/>
	<path fill="none" stroke="#000000" stroke-width="3" stroke-miterlimit="10" d="M669.1,174.4C669.1,174.4,669.1,174.4,669.1,174.4
		c-0.1,1.8-0.3,3.6-0.4,5.5c3.1-14.8,6.1-29.6,9-44.6C672.6,147.8,670.2,161,669.1,174.4z"/>
	<path fill="none" stroke="#000000" stroke-width="3" stroke-miterlimit="10" d="M602.3,375.4c0,0.2,0,0.4,0,0.6
		C602.4,375.9,602.4,375.7,602.3,375.4z"/>
	<path fill="none" stroke="#000000" stroke-width="3" stroke-miterlimit="10" d="M603.8,363.5c0,0.1,0,0.3,0.1,0.3
		C603.9,363.7,603.9,363.6,603.8,363.5z"/>
	<path fill="none" stroke="#000000" stroke-width="3" stroke-miterlimit="10" d="M603.7,362.5c0,0.1,0,0.1,0,0.2
		C603.7,362.6,603.7,362.5,603.7,362.5z"/>
	<path fill="none" stroke="#000000" stroke-width="3" stroke-miterlimit="10" d="M527,125.1c3-1,4.5-3.6,4.5-7.7
		c-1.2,2.7,1.2-2.7,0,0c0.8-2,1.7-3.6,2.5-4.9C531.4,116.4,529.2,120.8,527,125.1z"/>
	<path fill="none" stroke="#000000" stroke-width="3" stroke-miterlimit="10" d="M602,373.7l-0.1,0.4c0,0.1,0,0.2,0.1,0.3
		C602,374.2,602,374,602,373.7z"/>
	<path fill="none" stroke="#000000" stroke-width="3" stroke-miterlimit="10" d="M591.2,359.8l-1,17.1
		C592.9,371.9,592,365.1,591.2,359.8z"/>
	<path fill="none" stroke="#000000" stroke-width="3" stroke-miterlimit="10" d="M521.4,453c31.3,0,47.8-42.3,52.4-66.4
		c5.9-30.9,1-59.6-5.6-89.9C553.8,313.3,476.9,453,521.4,453z"/>
	<path fill="none" stroke="#000000" stroke-width="3" stroke-miterlimit="10" d="M133.9,359.1C133.9,359.1,133.9,359.1,133.9,359.1
		C133.7,359.4,133.3,359.9,133.9,359.1z"/>
	<path fill="none" stroke="#000000" stroke-width="3" stroke-miterlimit="10" d="M581.5,387c0-5.9,6.6-18.7,2.2-24.5
		c-0.9,7.2-1.7,14.6-3.6,21.6C580.5,385.9,578.8,387.2,581.5,387z"/>
	<path fill="none" stroke="#000000" stroke-width="3" stroke-miterlimit="10" d="M195.8,271.4c0,0,0-0.1,0-0.1c0,0,0,0,0-0.1
		c0-0.1,0-0.1,0-0.2c0-0.1,0-0.2,0.1-0.3c0-0.2,0.1-0.4,0.1-0.5c0,0,0-0.1,0-0.1c0-0.1,0-0.1,0,0c0,0,0,0.1,0,0.1
		c0,0.1-0.1,0.3-0.1,0.5c0,0.1,0,0.2-0.1,0.3c0,0.1,0,0.1,0,0.2c0,0,0,0,0,0.1C195.8,271.3,195.8,271.4,195.8,271.4
		c-0.5,2.3-0.9,4.7-1.1,7c2.1-7,4.2-14.1,6.5-21.2C197.8,260.2,196.7,267.5,195.8,271.4z"/>
	<path fill="none" stroke="#000000" stroke-width="3" stroke-miterlimit="10" d="M314.7,312c0-0.2-0.1-0.4-0.1-0.5
		C314.6,311.7,314.6,311.9,314.7,312z"/>
	<path fill="none" stroke="#000000" stroke-width="3" stroke-miterlimit="10" d="M306,386.7c0-0.1,0-0.2,0-0.3
		C306,386.6,306,386.7,306,386.7z"/>
	<path fill="none" stroke="#000000" stroke-width="3" stroke-miterlimit="10" d="M305.9,386c0-0.1,0-0.2,0-0.3
		C305.8,385.8,305.8,385.9,305.9,386z"/>
	<path fill="none" stroke="#000000" stroke-width="3" stroke-miterlimit="10" d="M291,312.3c0-0.4,0.1-0.7,0.1-0.9
		c0.3-2,0.5-4.1,0.6-6.1C291.4,307.6,291.2,309.9,291,312.3z"/>
	<path fill="none" stroke="#000000" stroke-width="3" stroke-miterlimit="10" d="M350.7,202.3C350.7,202.4,350.7,202.4,350.7,202.3
		L350.7,202.3z"/>
	<path fill="none" stroke="#000000" stroke-width="3" stroke-miterlimit="10" d="M314.5,311c0-0.1,0-0.2,0-0.2
		C314.4,310.9,314.4,311,314.5,311z"/>
	<path fill="none" stroke="#000000" stroke-width="3" stroke-miterlimit="10" d="M314.4,310.7C314.4,310.6,314.4,310.6,314.4,310.7
		L314.4,310.7z"/>
	<path fill="none" stroke="#000000" stroke-width="3" stroke-miterlimit="10" d="M311,325c-0.5,1.9,0.9,2.7,1,3
		C311.5,326.3,313.1,325.3,311,325z"/>
	<path fill="none" stroke="#000000" stroke-width="3" stroke-miterlimit="10" d="M312,321c1.4-2.6,3.6,5.5,1.6-3
		C310.3,317.6,312.9,319.2,312,321z"/>
	<path fill="none" stroke="#000000" stroke-width="3" stroke-miterlimit="10" d="M300,184.5l1.4-2.7
		C300.3,182.5,299.8,183.4,300,184.5z"/>
	<path fill="none" stroke="#000000" stroke-width="3" stroke-miterlimit="10" d="M290.9,312.5c0-0.1,0-0.2,0-0.3
		C291,312.4,291,312.5,290.9,312.5z"/>
	<path fill="none" stroke="#000000" stroke-width="3" stroke-miterlimit="10" d="M182.5,269.7c2.5-6.3,6.3-15.1,8-20.3
		C188,249.4,183,267.4,182.5,269.7z"/>
	<path fill="none" stroke="#000000" stroke-width="3" stroke-miterlimit="10" d="M195.7,271.8C195.6,272,195.6,272,195.7,271.8
		L195.7,271.8z"/>
	<path fill="none" stroke="#000000" stroke-width="3" stroke-miterlimit="10" d="M669.2,172.8C669.2,172.7,669.2,172.7,669.2,172.8
		L669.2,172.8z"/>
	<path fill="none" stroke="#000000" stroke-width="3" stroke-miterlimit="10" d="M225.5,310.7l4.2-6.3
		C227.1,305.6,225.7,307.7,225.5,310.7z"/>
	<path fill="none" stroke="#000000" stroke-width="3" stroke-miterlimit="10" d="M351.5,292c-0.1,0.1-0.2,0.2-0.4,0.2
		C351.3,292.1,351.4,292,351.5,292z"/>
	<path fill="none" stroke="#000000" stroke-width="3" stroke-miterlimit="10" d="M279.6,341.9c-0.1,0.2-0.2,0.4-0.4,0.5
		C279.3,342.4,279.5,342.2,279.6,341.9z"/>
	<path fill="none" stroke="#000000" stroke-width="3" stroke-miterlimit="10" d="M291.1,311.3c-0.1,0.4-0.1,0.8-0.1,1.2
		C291.1,311.2,291.1,311,291.1,311.3z"/>
	<path fill="none" stroke="#000000" stroke-width="3" stroke-miterlimit="10" d="M263.7,257.1l-4.2,6.3
		C262,262,263.4,259.9,263.7,257.1z"/>
	<path fill="none" stroke="#000000" stroke-width="3" stroke-miterlimit="10" d="M279.3,342.5c-0.5,0.7,0.5-1.6,0.4-0.5
		c0.1-1.2,0.2-2.4,0.4-3.6c-1.6,2.9-3.2,5.9-4.8,8.8C276.7,345.8,278.1,344.3,279.3,342.5z"/>
	<path fill="none" stroke="#000000" stroke-width="3" stroke-miterlimit="10" d="M335,116.5v-0.9c0,0.5-0.1,0.9-0.2,1.4L335,116.5z"
		/>
	<path fill="none" stroke="#000000" stroke-width="3" stroke-miterlimit="10" d="M329.8,221.1c-0.9,1.2-1.2,2.6-1.3,4
		C329,223.7,329.6,222.3,329.8,221.1z"/>
	<path fill="none" stroke="#000000" stroke-width="3" stroke-miterlimit="10" d="M334.3,120.7c-0.4,0.6-0.6,1.1-0.6,1.6
		C334.1,121.8,334.3,121.3,334.3,120.7z"/>
	<path fill="none" stroke="#000000" stroke-width="3" stroke-miterlimit="10" d="M163.2,210.6c0,0.1,0,0.3,0,0.5
		C163.2,210.9,163.2,210.8,163.2,210.6z"/>
	<path fill="none" stroke="#000000" stroke-width="3" stroke-miterlimit="10" d="M330.3,128.7l-0.7,2.3
		C330.1,130.3,330.3,129.6,330.3,128.7z"/>
	<path fill="none" stroke="#000000" stroke-width="3" stroke-miterlimit="10" d="M351.6,291.8c0,0-0.1,0.1-0.1,0.1
		C351.5,291.9,351.6,291.9,351.6,291.8z"/>
	<path fill="none" stroke="#000000" stroke-width="3" stroke-miterlimit="10" d="M351.6,291.8C351.6,291.8,351.6,291.8,351.6,291.8
		C351.6,291.8,351.6,291.8,351.6,291.8z"/>
	<path fill="none" stroke="#000000" stroke-width="3" stroke-miterlimit="10" d="M349.4,298.1l0.3-2.7
		C348.9,296.3,348.5,297.3,349.4,298.1z"/>
	<path fill="none" stroke="#000000" stroke-width="3" stroke-miterlimit="10" d="M163.2,210.4C163.2,210.3,163.2,210.3,163.2,210.4
		L163.2,210.4z"/>
	<path fill="none" stroke="#000000" stroke-width="3" stroke-miterlimit="10" d="M328.5,208v-1.8l-1.4,5
		C328,210.8,328.5,209.8,328.5,208z"/>
	<path fill="none" stroke="#000000" stroke-width="3" stroke-miterlimit="10" d="M321.6,266.1l1-4.1
		C320.3,262,321.6,265.2,321.6,266.1z"/>
	<path fill="none" stroke="#000000" stroke-width="3" stroke-miterlimit="10" d="M321.5,234.7c-1.6,5.4-1.2,10.8-1.9,16.4
		c1.3-7.6,2.7-15.1,4.1-22.7C322.9,230.4,322.1,232.5,321.5,234.7z"/>
	<path fill="none" stroke="#000000" stroke-width="3" stroke-miterlimit="10" d="M317.8,261.4C317.7,261.3,318.1,259.7,317.8,261.4
		c0.3-1.7,0.6-3.5,0.9-5.2C316.7,258.4,316.4,260.1,317.8,261.4z"/>
	<path fill="none" stroke="#000000" stroke-width="3" stroke-miterlimit="10" d="M323.9,255.1c0,0.1,0,0.1,0,0.2
		C323.9,255.1,323.9,255.1,323.9,255.1z"/>
	<path fill="none" stroke="#000000" stroke-width="3" stroke-miterlimit="10" d="M163.2,211.2c0,0.1,0,0.2,0,0.3
		C163.2,211.4,163.2,211.3,163.2,211.2z"/>
	<path fill="none" stroke="#000000" stroke-width="3" stroke-miterlimit="10" d="M325.1,245.8v-0.9c-0.2,0.3-0.3,0.8-0.3,1.4
		L325.1,245.8z"/>
	<path fill="none" stroke="#000000" stroke-width="3" stroke-miterlimit="10" d="M328,229.2c-0.8,1.5-1.1,3-1.1,4.6
		C327.6,232.3,328,230.8,328,229.2z"/>
	<path fill="none" stroke="#000000" stroke-width="3" stroke-miterlimit="10" d="M326.2,218.4l0.3-2.3v-1.8
		C326.5,215.6,326,217,326.2,218.4z"/>
	<path fill="none" stroke="#000000" stroke-width="3" stroke-miterlimit="10" d="M322.7,261.6c0,0.1,0.7-5.2,1-3.9
		c0-0.2,0-0.3,0-0.6c0,0.1,0,0.1-0.1,0.2c0-0.1,0-0.1,0-0.2c0.1-0.1,0.1-0.1,0.1-0.1c0-0.6,0.1-1.2,0.2-1.8c-0.1,0.5,0-0.1,0-0.2
		C324.4,251.7,322.7,259.9,322.7,261.6z"/>
	<path fill="none" stroke="#000000" stroke-width="3" stroke-miterlimit="10" d="M898.2,130.9c0.5-0.6,0.7-1.4,0.7-2.3L898.2,130.9z
		"/>
	<path fill="none" stroke="#000000" stroke-width="3" stroke-miterlimit="10" d="M853,397c-0.4-0.5-0.7-0.7-0.8-0.9
		C852.3,396.3,852.6,396.6,853,397z"/>
	<path fill="none" stroke="#000000" stroke-width="3" stroke-miterlimit="10" d="M868.8,245.8C868.8,245.8,868.8,245.9,868.8,245.8
		C868.8,245.9,868.8,245.8,868.8,245.8z"/>
	<path fill="none" stroke="#000000" stroke-width="3" stroke-miterlimit="10" d="M862.1,377c0.1-2,0.2-4,0.3-6
		C859.8,372.9,861.9,375.3,862.1,377z"/>
	<path fill="none" stroke="#000000" stroke-width="3" stroke-miterlimit="10" d="M868.9,245.3c0,0.1,0,0.1,0,0.1
		C868.8,245.4,868.8,245.4,868.9,245.3z"/>
	<path fill="none" stroke="#000000" stroke-width="3" stroke-miterlimit="10" d="M756.7,310.6c0,0,0,0.1-0.1,0.2
		C756.7,310.7,756.7,310.6,756.7,310.6z"/>
	<path fill="none" stroke="#000000" stroke-width="3" stroke-miterlimit="10" d="M868.9,245.2c0.8-4.8,1.5-9.6,2.1-14.5
		c-1.5,7.8-2.9,15.5-4.1,23.3C867.7,251.1,868.4,248.2,868.9,245.2z"/>
	<path fill="none" stroke="#000000" stroke-width="3" stroke-miterlimit="10" d="M869.1,243.9c0,0.1,0,0.2,0,0.2
		C869.1,244,869.1,244,869.1,243.9z"/>
	<path fill="none" stroke="#000000" stroke-width="3" stroke-miterlimit="10" d="M869,244.6c0,0.1,0,0.2-0.1,0.3
		C868.9,244.8,869,244.7,869,244.6z"/>
	<path fill="none" stroke="#000000" stroke-width="3" stroke-miterlimit="10" d="M869.1,243.7C869.1,243.5,869.1,243.6,869.1,243.7
		L869.1,243.7z"/>
	<path fill="none" stroke="#000000" stroke-width="3" stroke-miterlimit="10" d="M870.4,181.8c-0.9,0-1.4,0.6-1.4,1.8
		C869.3,185.9,870.1,182.5,870.4,181.8z"/>
	<path fill="none" stroke="#000000" stroke-width="3" stroke-miterlimit="10" d="M804.5,335C804.5,335,804.5,335,804.5,335
		C804.2,335.6,803.9,336.2,804.5,335z"/>
	<path fill="none" stroke="#000000" stroke-width="3" stroke-miterlimit="10" d="M786.8,299c-1.5,5.2,4.9,19.8,0.4,19.8
		c-10.2,0-15-11.1-19.4-18.5c-6.9,22.8-13.4,46.8-8.3,70.7c39.8-13.7,56.6-70,62.4-106.9c0.1-0.3,0.2-1.3,0.1-0.3
		c0.6-3.5,0.4-7-0.7-10.4C805.9,253.5,790.1,287.2,786.8,299z"/>
	<path fill="none" stroke="#000000" stroke-width="3" stroke-miterlimit="10" d="M804.6,334.9C804.5,334.9,804.5,335,804.6,334.9
		C805.1,333.9,804.8,334.3,804.6,334.9z"/>
	<path fill="none" stroke="#000000" stroke-width="3" stroke-miterlimit="10" d="M806.6,353.7C806.6,353.7,806.6,353.7,806.6,353.7
		C807.5,352.4,807.2,352.9,806.6,353.7z"/>
	<path fill="none" stroke="#000000" stroke-width="3" stroke-miterlimit="10" d="M799.7,363.8c1.6-2.7,3.9-6.1,6.9-10.1
		c-1.7,2.3-0.7,1,0,0c2.3-3.1,4.5-6.4,6.5-9.7C809.4,343,801,358.3,799.7,363.8z"/>
	<path fill="none" stroke="#000000" stroke-width="3" stroke-miterlimit="10" d="M821.9,263.8c0,0.1,0,0.2-0.1,0.3
		C821.8,264.3,821.8,264.3,821.9,263.8z"/>
	<path fill="none" stroke="#000000" stroke-width="3" stroke-miterlimit="10" d="M800.4,341.3c1.6-1.8,3-3.9,4.2-6.3
		c0,0,0-0.1,0.1-0.1c1.1-2.4,2.3-4.9,3.4-7.6C805.8,331,800.4,336.9,800.4,341.3z"/>
	<path fill="none" stroke="#000000" stroke-width="3" stroke-miterlimit="10" d="M805,343.8c0.9-1.8,1.9-3.5,2.8-5.3
		C806.9,340.2,805.8,342.2,805,343.8z"/>
	<path fill="none" stroke="#000000" stroke-width="3" stroke-miterlimit="10" d="M873.9,328.8c0,0.1,0,0.1,0,0.2
		C873.9,328.9,873.9,328.9,873.9,328.8z"/>
	<path fill="none" stroke="#000000" stroke-width="3" stroke-miterlimit="10" d="M891.2,261.6l0.4-1.9
		C891.1,260.2,890.9,260.8,891.2,261.6z"/>
	<path fill="none" stroke="#000000" stroke-width="3" stroke-miterlimit="10" d="M887,274c-0.5,1.9,0.9,2.7,1,3
		C887.5,275.3,889.1,274.3,887,274z"/>
	<path fill="none" stroke="#000000" stroke-width="3" stroke-miterlimit="10" d="M195.8,271.5C195.8,271.4,195.8,271.4,195.8,271.5
		C195.8,271.4,195.8,271.4,195.8,271.5C195.8,271.4,195.8,271.4,195.8,271.5z"/>
	<path fill="none" stroke="#000000" stroke-width="3" stroke-miterlimit="10" d="M890.2,266.1l1-4.1
		C888.9,262,890.2,265.2,890.2,266.1z"/>
	<path fill="none" stroke="#000000" stroke-width="3" stroke-miterlimit="10" d="M897.5,208v-1.3c0,1.4-0.6,2.8-0.9,4.2
		C897.2,210.4,897.5,209.4,897.5,208z"/>
	<path fill="none" stroke="#000000" stroke-width="3" stroke-miterlimit="10" d="M669.2,173.6c0-0.2,0-0.4,0-0.6
		C669.2,173.2,669.2,173.4,669.2,173.6z"/>
	<path fill="none" stroke="#000000" stroke-width="3" stroke-miterlimit="10" d="M902.6,120.9c-0.3,0.5-0.5,0.9-0.5,1.4
		C902.5,121.9,902.6,121.4,902.6,120.9z"/>
	<path fill="none" stroke="#000000" stroke-width="3" stroke-miterlimit="10" d="M900.5,116.5v-0.9c0,1.2-0.7,2.4-0.9,3.6
		L900.5,116.5z"/>
	<path fill="none" stroke="#000000" stroke-width="3" stroke-miterlimit="10" d="M902.7,142.2c0.2-0.3,0.3-0.5,0.4-0.6
		C903,141.7,902.8,142,902.7,142.2z"/>
	<path fill="none" stroke="#000000" stroke-width="3" stroke-miterlimit="10" d="M874.4,385.9c0-0.1,0-0.2,0-0.2
		C874.4,385.7,874.4,385.8,874.4,385.9z"/>
	<path fill="none" stroke="#000000" stroke-width="3" stroke-miterlimit="10" d="M876,376.4c-0.1-0.4-0.1-0.7-0.1-0.9
		C875.9,375.8,875.9,376.1,876,376.4z"/>
	<path fill="none" stroke="#000000" stroke-width="3" stroke-miterlimit="10" d="M874.6,386.8c0-0.1,0-0.1,0-0.2
		C874.6,386.7,874.6,386.8,874.6,386.8z"/>
	<path fill="none" stroke="#000000" stroke-width="3" stroke-miterlimit="10" d="M875.8,375.1c0-0.1,0-0.1,0-0.2
		C875.8,375,875.8,375.1,875.8,375.1z"/>
	<path fill="none" stroke="#000000" stroke-width="3" stroke-miterlimit="10" d="M873.3,331.2c0-0.2,0.1-0.4,0.1-0.6
		c1.2-6.1,2.1-12.3,2.6-18.5C874.9,312.4,873.6,328.7,873.3,331.2z"/>
	<path fill="none" stroke="#000000" stroke-width="3" stroke-miterlimit="10" d="M886,280.6C888,281.5,886.7,280.6,886,280.6
		L886,280.6z"/>
	<path fill="none" stroke="#000000" stroke-width="3" stroke-miterlimit="10" d="M886,280.6c0,0,0.1,0,0.1,0
		C886.1,280.7,886,280.6,886,280.6z"/>
	<path fill="none" stroke="#000000" stroke-width="3" stroke-miterlimit="10" d="M876.8,365.8C876.8,365.2,876.8,365.2,876.8,365.8
		L876.8,365.8z"/>
	<path fill="none" stroke="#000000" stroke-width="3" stroke-miterlimit="10" d="M874.1,328c0,0-0.1,0.3-0.1,0.6
		C874,328.2,874,328,874.1,328z"/>
	<path fill="none" stroke="#000000" stroke-width="3" stroke-miterlimit="10" d="M672.5,291.3C672.5,291.3,672.5,291.3,672.5,291.3
		C673.5,291.1,672.5,291.2,672.5,291.3z"/>
	<path fill="none" stroke="#000000" stroke-width="3" stroke-miterlimit="10" d="M657.6,337.2C655.6,344.5,658.9,332.3,657.6,337.2
		c1.4-5,2.9-9.9,4.5-14.7c-8.9,9.8-7.5,28.6-11.9,40.4C654.8,356.8,655.6,344.6,657.6,337.2z"/>
	<path fill="none" stroke="#000000" stroke-width="3" stroke-miterlimit="10" d="M647.4,211.1c0.1-2.4,0.2-4.8,0.3-7.2
		c2-5.7,3.3-12.7,4.2-18.9C648.9,192.8,646.9,203.4,647.4,211.1z"/>
	<path fill="none" stroke="#000000" stroke-width="3" stroke-miterlimit="10" d="M642.9,233c1.3,0.2,1.4-0.5,0.3-2.3
		C643,231.4,642.9,232,642.9,233z"/>
	<path fill="none" stroke="#000000" stroke-width="3" stroke-miterlimit="10" d="M642.5,219.2v-1.8
		C641.5,218.7,641.5,219.3,642.5,219.2z"/>
	<path fill="none" stroke="#000000" stroke-width="3" stroke-miterlimit="10" d="M710.4,363.8C710.4,363.8,710.4,363.8,710.4,363.8
		L710.4,363.8z"/>
	<path fill="none" stroke="#000000" stroke-width="3" stroke-miterlimit="10" d="M710.6,364.5c0.2,0.6,0.4,1.2,0.2,0.7
		C710.8,364.9,710.7,364.7,710.6,364.5z"/>
	<path fill="none" stroke="#000000" stroke-width="3" stroke-miterlimit="10" d="M673.7,292.6c0.2-0.6,0.5-1,0.7-1.4
		c-0.1,0.2-0.1,0.1,0,0c0.2-0.3,0.3-0.7,0.3-1.4C674.2,290.8,673.9,291.7,673.7,292.6z"/>
	<path fill="none" stroke="#000000" stroke-width="3" stroke-miterlimit="10" d="M642,240.4C642,240.4,642,240.4,642,240.4
		C642,240.2,642,240.3,642,240.4z"/>
	<path fill="none" stroke="#000000" stroke-width="3" stroke-miterlimit="10" d="M756.6,310.8c0,0.1-0.1,0.2-0.1,0.4
		C756.5,311,756.6,310.9,756.6,310.8z"/>
	<path fill="none" stroke="#000000" stroke-width="3" stroke-miterlimit="10" d="M659.5,225.4C659.3,226.2,659.2,226.2,659.5,225.4
		C658.3,228.7,658.9,228.5,659.5,225.4z"/>
	<path fill="none" stroke="#000000" stroke-width="3" stroke-miterlimit="10" d="M669.1,173.9c0-0.1,0-0.1,0-0.2
		C669.2,173.8,669.1,173.9,669.1,173.9z"/>
	<path fill="none" stroke="#000000" stroke-width="3" stroke-miterlimit="10" d="M658.3,187.5c-0.2,2.3-1,5.7-0.4,2.1
		c-1.2,6-2.3,12-3.2,17.9C657.8,203.4,657.9,192.2,658.3,187.5z"/>
	<path fill="none" stroke="#000000" stroke-width="3" stroke-miterlimit="10" d="M642.9,331c1.3-0.4,0.3-1.2,0.3-2.5
		C643,329.1,642.9,331,642.9,331z"/>
	<path fill="none" stroke="#000000" stroke-width="3" stroke-miterlimit="10" d="M642,240.4C642,240.4,642,240.4,642,240.4
		c0.1-0.4,0.2-0.8,0.2-1.4C641.7,240.3,641,242.9,642,240.4z"/>
	<path fill="none" stroke="#000000" stroke-width="3" stroke-miterlimit="10" d="M642,240.4C642,240.4,642,240.4,642,240.4
		C642,240.4,642,240.4,642,240.4z"/>
	<path fill="none" stroke="#000000" stroke-width="3" stroke-miterlimit="10" d="M710.6,364.5c-0.1-0.2-0.1-0.4-0.1-0.5
		C710.5,364.1,710.6,364.3,710.6,364.5z"/>
	<path fill="none" stroke="#000000" stroke-width="3" stroke-miterlimit="10" d="M657.9,189.6c0.1-0.7,0.3-1.4,0.4-2.1
		C658.1,188.4,658,189.1,657.9,189.6z"/>
	<path fill="none" stroke="#000000" stroke-width="3" stroke-miterlimit="10" d="M791.3,261.6c-0.1,0.2-0.3,0.4-0.4,0.7
		C791,262.1,791.1,261.9,791.3,261.6z"/>
	<path fill="none" stroke="#000000" stroke-width="3" stroke-miterlimit="10" d="M761.3,298.6C761,299.2,760.7,299.2,761.3,298.6
		c-1.8,1.5-2.8,3.4-3,5.8C759.4,302.4,760.4,300.5,761.3,298.6z"/>
	<path fill="none" stroke="#000000" stroke-width="3" stroke-miterlimit="10" d="M756.1,280.9c-0.8,1.5-1.6,3-2.3,4.5l5.5-8.1
		C758,278.2,756.9,279.4,756.1,280.9z"/>
	<path fill="none" stroke="#000000" stroke-width="3" stroke-miterlimit="10" d="M762.9,280.9C761.9,283.4,762.4,283.7,762.9,280.9
		L762.9,280.9z"/>
	<path fill="none" stroke="#000000" stroke-width="3" stroke-miterlimit="10" d="M791.3,261.6c-2.3,2.7-4.2,5.6-5.8,8.8
		c1.7-2.7,3.6-5.4,5.4-8.1C790.5,262.8,790.8,262.3,791.3,261.6z"/>
	<path fill="none" stroke="#000000" stroke-width="3" stroke-miterlimit="10" d="M762.9,280.9c0,0,0,0.1,0,0.2
		C762.9,281.1,762.9,281,762.9,280.9z"/>
	<path fill="none" stroke="#000000" stroke-width="3" stroke-miterlimit="10" d="M722.3,286.9c0,0,0,0.1,0,0.1
		C722.7,284,722.5,285.4,722.3,286.9z"/>
	<path fill="none" stroke="#000000" stroke-width="3" stroke-miterlimit="10" d="M714.7,329.6c4.3-13.4,5.6-28.7,7.6-42.6
		c-0.5,3.2-0.2,1.4,0-0.1c0.9-6.1,1.7-12.3,2.4-18.6C720.1,288.5,717.4,309.1,714.7,329.6z"/>
	<path fill="none" stroke="#000000" stroke-width="3" stroke-miterlimit="10" d="M779.9,268.7c4.5-7.5,12.7-16.6,16-22.7
		C789.8,253,784.5,260,779.9,268.7z"/>
	<path stroke="#000000" stroke-width="3" stroke-miterlimit="10" d="M163.3,211.6c-1.3-15.4-0.4-31.1,1.4-46.4
		c1.3-11.7,9.6-29.5,5-40.8c-9.9-24-35.1-41.7-61.1-41.7c-30.1,0-55.5,40.1-68.1,62.8c-17.4,31.4-28,66.6-32.6,102.1
		c-6.4,49.3-2.1,162.2,70,162.2c28.7,0,52.4-23.8,64.5-48c9.9-19.8,9.3-68.3-23.8-68.3c0.1,8,5.9,16,5.9,24.8
		c0,12.3-7.6,23.9-14.9,33.1c-10,12.6-39.1,42.6-53.6,18.9c-27.6-45.1-11.7-121.7,5-167.7c9.6-26.3,23-53.6,42.3-74.2
		c8.1-8.6,17.9-17.9,30.5-17.9c15.2,0,6.1,14.5,4.3,24c-3.1,16.8-3,34.8-1.4,51.7c1.2,12.4,2.9,24.3,8.8,35.4
		c3.8,7.2,10.8,8.7,15.3,14.5C165.1,229,163.9,219.5,163.3,211.6z M133.9,359.1C133.3,359.9,133.7,359.4,133.9,359.1
		c-0.9,1.4-1.9,2.3-2.9,2.7c1.5-2,3.2-3.9,4.7-5.9C135.2,357,134.6,358.1,133.9,359.1C134.1,358.9,134.2,358.7,133.9,359.1z
		 M131.1,344.5c0.2-0.7,0.7-1.2,1.5-1.6c-0.6,1.4-1.2,2.7-2,4C130.7,346,130.9,345.2,131.1,344.5z M127.4,335.9
		c0,3.5-3.8,7.1-4.4,7.2C124.4,340.7,125.9,338.3,127.4,335.9z M163.3,212.1c0-0.1,0-0.2,0-0.3C163.3,211.9,163.3,212,163.3,212.1z
		 M163.3,212.6C163.4,212.8,163.4,212.8,163.3,212.6L163.3,212.6z M163.3,212.5c0-0.1,0-0.1,0-0.2
		C163.3,212.4,163.3,212.4,163.3,212.5z M163.2,210.4C163.2,210.3,163.2,210.3,163.2,210.4L163.2,210.4z M163.2,211.5
		c0-0.1,0-0.2,0-0.3C163.2,211.3,163.2,211.4,163.2,211.5z M163.2,211.1c0-0.2,0-0.4,0-0.5C163.2,210.8,163.2,210.9,163.2,211.1z"/>
	<polygon stroke="#000000" stroke-width="3" stroke-miterlimit="10" points="133.9,359.1 133.9,359.1 133.9,359.1 	"/>
	<path stroke="#000000" stroke-width="3" stroke-miterlimit="10" d="M196,270.2C196.1,270.1,196.1,270,196,270.2L196,270.2z"/>
	<path stroke="#000000" stroke-width="3" stroke-miterlimit="10" d="M290.9,312.5c0.1-0.4,0.1-0.8,0.1-1.2c0,0.2-0.1,0.6-0.1,0.9
		C291,312.4,291,312.5,290.9,312.5z"/>
	<path stroke="#000000" stroke-width="3" stroke-miterlimit="10" d="M279.3,342.5c0.1-0.2,0.2-0.4,0.4-0.5
		C279.7,340.9,278.7,343.2,279.3,342.5z"/>
	<path stroke="#000000" stroke-width="3" stroke-miterlimit="10" d="M352.1,202.1c12.4-2.2,31.8-4.9,39.2-16.7
		c-6.8-1.7-6-12.2-13.7-14c-9.1-2.1-21.4-0.1-30.4,2.3c2.7-10,21.3-60.6,2.7-55.9c0-6.2-1.5-6.6-5.5-3.2c0.6-2.1,1.3-4.2,1.9-6.3
		c-1.3-0.7-2.7-1.6-4-2.3c-1.6,2.8-3.3,5.5-5.2,8.1c3.7-5.3-1.1-14.5-5.4-8.1c-9.1,13.5-13.5,30.4-19.1,45.5
		c-4.1,11-10.5,33-22.6,35.8c-12.6,2.9-21.6,2.2-19.1,13.7c1.7,8,7.2,13.5,15.1,12.8c14.2-1.2,8.5,9.8,7,20.5
		c-2.2,15.6-5.7,96.1-16.2,100.1c1.9-2.5,2.4-3.4,2.8-5c-3.3,4.8-4.2,5.6-6.6,9.9c-2.3,4.1-27.8,41.9-27.8,28
		c0-20.4,8.2-45.2,12.5-65.2c2.9-13.6,15.7-39.2,11.2-52c-1.3,1.9-1.5,2.5-4.6,4.2c2.1-7-6.5-13-12.5-8
		c-9.5,7.9-12.4,24.1-16.4,35.2c-10.3,28.6-29,56.7-47.8,80.4c2.6-26.1,6.1-51.7,12.8-77c1.3-4.7,15.5-44,2.1-37
		c0.3-1.6,0.7-3.3,1-4.9c-1.8,0.1-3.3,0.7-4.7,1.8c-2.8-20.6-19.3,13.7-21.2,19.2c-7.8,22.8-12.7,46.8-15,70.8
		c-1.7,18-5.5,48.3,17.5,54.4c19.9,5.3,34.4-32.7,41.5-46.2c0,15.3-7.2,47.6,13.1,53.7c23.7,7.1,37-35.2,44.3-50.5
		c-2.7,27.6-4.7,55.2-5,83c-0.1,13-0.4,26.2,1.5,39.1c2.9,19.3,10.1,21.3,24.4,31.5c0.7-1.4,1.4-2.7,2.1-4.1
		c2.2,6.9,9.6-1.9,8.4-6.8c-3-14.5-3.6-29.2-3.4-44c0.5-29.5,3.6-58.9,7.3-88.1c3.5-27.2,7.2-54.4,11.5-81.4
		c2.4-14.9,5.1-29.8,8.2-44.7C337.4,214.9,335.3,205.1,352.1,202.1z M350.7,202.3C350.7,202.4,350.7,202.4,350.7,202.3L350.7,202.3z
		 M263.7,257.1c-0.3,2.8-1.7,4.9-4.2,6.3L263.7,257.1z M195.8,271.4C195.8,271.4,195.8,271.4,195.8,271.4
		C195.8,271.4,195.8,271.4,195.8,271.4c0.9-3.9,2-11.3,5.3-14.2c-2.3,7.1-4.4,14.2-6.5,21.2C194.9,276.1,195.2,273.7,195.8,271.4z
		 M195.7,271.8C195.6,272,195.6,272,195.7,271.8L195.7,271.8z M182.5,269.7c0.5-2.3,5.5-20.3,8-20.3
		C188.8,254.5,185,263.3,182.5,269.7z M225.5,310.7c0.2-2.9,1.6-5,4.2-6.3L225.5,310.7z M279.6,341.9c-0.2,0.3-0.3,0.4-0.4,0.5
		c-1.2,1.8-2.5,3.4-4,4.7c1.5-3,3.1-5.9,4.8-8.8C279.9,339.5,279.7,340.7,279.6,341.9z M290.9,312.5c0-0.1,0-0.2,0-0.3
		c0.2-2.4,0.5-4.7,0.7-7.1c-0.1,2.1-0.3,4.1-0.6,6.1C291.1,311,291.1,311.2,290.9,312.5z M300,184.5c-0.2-1.1,0.3-2,1.4-2.7
		L300,184.5z M305.8,385.7c0,0.1,0,0.2,0,0.3C305.8,385.9,305.8,385.8,305.8,385.7z M305.9,386.5c0,0.1,0,0.2,0,0.3
		C306,386.7,306,386.6,305.9,386.5z M312,328c-0.1-0.3-1.5-1.1-1-3C313.1,325.3,311.5,326.3,312,328z M312,321
		c0.9-1.8-1.7-3.4,1.6-3C315.6,326.5,313.4,318.4,312,321z M314.4,310.7C314.4,310.6,314.4,310.6,314.4,310.7L314.4,310.7z
		 M314.4,310.8c0,0.1,0,0.1,0,0.2C314.4,311,314.4,310.9,314.4,310.8z M314.6,311.5c0,0.1,0.1,0.3,0.1,0.5
		C314.6,311.9,314.6,311.7,314.6,311.5z M317.8,261.4c-1.4-1.3-1.1-3,0.9-5.2C318.4,257.9,318.1,259.7,317.8,261.4z M321.5,234.7
		c0.6-2.2,1.5-4.2,2.3-6.3c-1.4,7.6-2.8,15.1-4.1,22.7C320.3,245.5,319.9,240.1,321.5,234.7z M321.6,266.1c0-0.9-1.3-4.1,1-4.1
		L321.6,266.1z M323.9,255.3c-0.1,0.5-0.1,1.2-0.2,1.8c0,0-0.1,0-0.1,0.1c0,0.1,0,0.2,0,0.2c0-0.1,0.1-0.2,0.1-0.2
		c0,0.2,0,0.4,0,0.6c-0.3-1.3-1.1,4-1,3.9c0-1.6,1.8-9.9,1.2-6.4C323.9,255.1,323.9,255.1,323.9,255.3z M325.1,245.8l-0.3,0.5
		c0-0.6,0.1-1,0.3-1.4V245.8z M326.9,233.8c0-1.6,0.4-3.2,1.1-4.6C328,230.8,327.6,232.3,326.9,233.8z M326.5,216.1l-0.3,2.3
		c-0.2-1.4,0.3-2.8,0.3-4.1V216.1z M328.6,225.1c0.1-1.4,0.3-2.8,1.3-4C329.6,222.3,329,223.7,328.6,225.1z M328.5,208
		c0,1.8-0.5,2.9-1.4,3.2l1.4-5V208z M329.6,130.9l0.7-2.3C330.3,129.6,330.1,130.3,329.6,130.9z M333.7,122.4c0-0.5,0.2-1.1,0.6-1.6
		C334.3,121.3,334.1,121.8,333.7,122.4z M335,116.5l-0.2,0.5c0.1-0.4,0.2-0.9,0.2-1.4V116.5z"/>
	<path stroke="#000000" stroke-width="3" stroke-miterlimit="10" d="M323.9,255.3c0-0.1,0-0.1,0-0.2
		C323.9,255.2,323.8,255.8,323.9,255.3z"/>
	<path stroke="#000000" stroke-width="3" stroke-miterlimit="10" d="M195.8,271.4C195.8,271.4,195.8,271.4,195.8,271.4
		c0,0,0-0.1,0-0.1C195.8,271.3,195.8,271.4,195.8,271.4z"/>
	<path stroke="#000000" stroke-width="3" stroke-miterlimit="10" d="M195.9,270.7c0-0.2,0.1-0.3,0.1-0.5
		C196,270.4,196,270.5,195.9,270.7z"/>
	<path stroke="#000000" stroke-width="3" stroke-miterlimit="10" d="M195.9,271c0-0.1,0-0.2,0.1-0.3
		C195.9,270.8,195.9,270.9,195.9,271z"/>
	<path stroke="#000000" stroke-width="3" stroke-miterlimit="10" d="M195.8,271.2c0-0.1,0-0.1,0-0.2
		C195.8,271.1,195.8,271.2,195.8,271.2z"/>
	<path stroke="#000000" stroke-width="3" stroke-miterlimit="10" d="M195.8,271.3C195.8,271.3,195.8,271.2,195.8,271.3
		C195.8,271.3,195.8,271.3,195.8,271.3z"/>
	<path stroke="#000000" stroke-width="3" stroke-miterlimit="10" d="M317.8,261.4C318.1,259.7,317.7,261.3,317.8,261.4L317.8,261.4z
		"/>
	<path stroke="#000000" stroke-width="3" stroke-miterlimit="10" d="M196,270.3C196,270.2,196,270.2,196,270.3
		C196,270.2,196,270.2,196,270.3z"/>
	<path stroke="#000000" stroke-width="3" stroke-miterlimit="10" d="M354.5,283.4C354.5,283.4,354.5,283.4,354.5,283.4
		C354.5,283.4,354.5,283.5,354.5,283.4z"/>
	<path stroke="#000000" stroke-width="3" stroke-miterlimit="10" d="M351.1,292.2c0.1-0.1,0.3-0.1,0.4-0.2c0.1,0,0.1-0.1,0.1-0.1
		c0,0,0,0,0,0C351.9,291.5,351.4,291.5,351.1,292.2z"/>
	<path stroke="#000000" stroke-width="3" stroke-miterlimit="10" d="M388.6,240.4c-4.2,3.8,1.6,11.3,4.2,17.6
		c-38-14-55.4,46.1-57.3,72.6c-1.2,16.9,1,38.9,16.8,49c15.6,10.1,35,3.7,36.4-15.3c-2.5,3.3-4.1,8.3-4.2,12.3c-0.8,0-1.6,0-2.4,0
		c-1.4-4,2.3-9.3,0.3-14.5c-1.3,4.2-3.5,6.9-6.6,9.9c1.1-4.3,3-8,3.3-12.6c-3.8,18.2-20.2,18.2-21.1-1.6c-0.2-3.7-2-9.2-0.9-12.9
		c0-11.2,11.7-8,19.8-11.8C409.4,317.8,430.9,258.7,388.6,240.4z M349.4,298.1c-0.9-0.7-0.5-1.7,0.3-2.7L349.4,298.1z M351.6,291.8
		C351.6,291.8,351.6,291.8,351.6,291.8c-0.1,0-0.1,0.1-0.1,0.1c-0.1,0.1-0.2,0.2-0.4,0.2c0.8-1.3,1.6-2.7,2.3-4.1
		C353,289.9,352.4,291.1,351.6,291.8z M355.8,283.4c0.1,0.9-0.3,1.6-1.1,2.1l1.3-3C356,283,355.9,283.3,355.8,283.4
		C355.8,283.4,355.8,283.4,355.8,283.4z M372.6,313.8C370.8,315.5,371.7,314.7,372.6,313.8c-2.8,2.9-6.2,4.7-10.1,5.4
		c2.3-16.2,11.9-41.1,29.4-46.4C392.8,288,383.6,304,372.6,313.8z M392,294.9c0.1-0.8,0.3-1.6,0.7-2.3
		C392.7,292.9,393,293.7,392,294.9z M394.8,289.9C395.7,287.8,395.3,289.9,394.8,289.9L394.8,289.9z M402.3,299.3
		C402.3,299.3,402.3,299.3,402.3,299.3L402.3,299.3z M402.6,298.5c-1,2.7-2.5,5.3-4.3,7.7c0-5.1,4.7-11.8,6.9-16.2
		C404.5,292.9,403.7,295.8,402.6,298.5z"/>
	<path stroke="#000000" stroke-width="3" stroke-miterlimit="10" d="M381.5,369.2c1-0.2,1-1.5,0-1.8V369.2z"/>
	<path stroke="#000000" stroke-width="3" stroke-miterlimit="10" d="M565.5,78.1c-34.8,6.6-52.7,48.1-52.7,79.9
		c0,40.6,29,75,44.4,110.8c-12.3,6.4-23.8,28.6-31,40c-11.4,17.8-20.6,37-28.4,56.6c-12.3,31.1-34,78.5-3,105.9
		c32.9,29.1,76.7-6.3,94.2-35.7c16.2-27.4,20.8-59.4,18.7-90.8c-1.1-16.7-4.9-34.2-11.4-49.6c-7.9-19-9.4-17.2-0.9-34.9
		c-12.5-7.9-16.9-4.5-24.7-17.6c-10.8-18.1-22.1-36.9-26.4-57.8c-4.2-20.2,0-41.7,11.7-58.6c7.1-10.3,25.9-29,40.3-22.6
		c15.6,6.9,11.3,35.9,8.3,48.6c-1.4,5.8-19.7,36.3-17.5,39.1c1.1,6.2,14.9,13.1,21.9,5.9c14.9-13.8,22.9-36.3,22.9-56.3
		C631.8,110.3,597.8,71.9,565.5,78.1z M485.7,431.9c0-2.9-1.6-6.8,1.7-9L485.7,431.9z M487.4,422.5
		C487.4,422.5,487.4,422.5,487.4,422.5c-0.3-1.5,0.1-5.6,0.1,0.2C487.4,422.7,487.4,422.6,487.4,422.5z M490.1,408.7
		c0,0.1,0,0.1,0.1,0.2C490.2,408.8,490.2,408.8,490.1,408.7z M490,408.1C489.9,407.9,489.9,407.9,490,408.1L490,408.1z M492,426
		c0.1,1.3-0.3,2.6-1.2,3.7c0.9-1.5,1.3-3.1,1.2-4.7C494.8,424.7,492.6,425,492,426z M603.7,362.7c0-0.1,0-0.1,0-0.2
		C603.7,362.5,603.7,362.6,603.7,362.7z M603.9,363.8c0-0.1,0-0.2-0.1-0.3C603.9,363.6,603.9,363.7,603.9,363.8z M602.3,376
		c0-0.2,0-0.4,0-0.6C602.4,375.7,602.4,375.9,602.3,376z M601.9,374.1l0.1-0.4c0,0.2,0,0.5,0,0.7
		C601.9,374.4,601.9,374.3,601.9,374.1z M591.2,359.8c0.8,5.4,1.7,12.1-1,17.1L591.2,359.8z M580,384.1c1.9-7,2.7-14.4,3.6-21.6
		c4.5,5.9-2.2,18.7-2.2,24.5C578.8,387.2,580.5,385.9,580,384.1z M573.8,386.6c-4.6,24.1-21.1,66.4-52.4,66.4
		c-44.5,0,32.4-139.7,46.8-156.3C574.8,327,579.8,355.7,573.8,386.6z M527,125.1c2.3-4.3,4.4-8.7,7-12.6c-0.8,1.3-1.7,3-2.5,4.9
		C531.5,121.5,530,124,527,125.1z M543.6,129.6c-2.3,4.5-4.5,9-6.6,13.5c0.9-7.4,6.5-15.8,10.8-21.8
		C546.5,124.1,545,126.8,543.6,129.6z M607.8,187.7c1.2-3,2.7-3.4,5.4-6.3C611.4,184.5,609.6,186.6,607.8,187.7z"/>
	<path stroke="#000000" stroke-width="3" stroke-miterlimit="10" d="M531.5,117.4C532.7,114.7,530.3,120.1,531.5,117.4L531.5,117.4z
		"/>
	<path stroke="#000000" stroke-width="3" stroke-miterlimit="10" d="M543.6,129.6C545,126.8,541.3,134.1,543.6,129.6L543.6,129.6z"
		/>
	<path stroke="#000000" stroke-width="3" stroke-miterlimit="10" d="M487.4,422.4C487.4,422.5,487.4,422.5,487.4,422.4
		c0,0.1,0,0.2,0.1,0.3C487.4,421.7,487.3,422,487.4,422.4z"/>
	<path stroke="#000000" stroke-width="3" stroke-miterlimit="10" d="M722.3,287c0,0,0-0.1,0-0.1C722.1,288.5,721.8,290.2,722.3,287z
		"/>
	<path stroke="#000000" stroke-width="3" stroke-miterlimit="10" d="M658.3,187.5c-0.1,0.7-0.3,1.4-0.4,2.1
		C657.2,193.2,658.1,189.8,658.3,187.5z"/>
	<path stroke="#000000" stroke-width="3" stroke-miterlimit="10" d="M642,240.4C642,240.4,642,240.4,642,240.4
		C642,240.4,642,240.4,642,240.4C642,240.4,642,240.4,642,240.4z"/>
	<path stroke="#000000" stroke-width="3" stroke-miterlimit="10" d="M657.6,337.2C658.9,332.3,655.6,344.5,657.6,337.2L657.6,337.2z
		"/>
	<path stroke="#000000" stroke-width="3" stroke-miterlimit="10" d="M732,248.6C732.3,249.2,732.4,249.6,732,248.6
		c-0.5-1.2-0.3-0.8-0.1-0.2c-20.1-51.9-66.3,28-75.6,45.6c0-35.4,12.6-74.3,19.6-108.8c5.2-25.7,14-51.7,14-78.1
		c-1.3-13.7-8.4-14.7-18.4-22.5c-12.4,19.2-16.9,50.5-22,72.6c-6.8,29.5-11,59.9-15.7,89.8c-4.9,31.5-31.6,139.4,16.8,146.7
		c11.1-50.6,20.7-101.2,56.9-140.6c-1.5,32.2-10.8,66.9-14,99.8c-2.1,21.1-14.8,73.7,10.9,86.3c15,7.4,10.7-3.2,10-11.6
		c-1.8-21.5,0.8-44.1,4.2-65.3c3.4-21.3,6.1-42.7,9.5-63.9C730.7,283.6,737.6,263.3,732,248.6z M682,111.5
		C682,111.5,682.5,115.2,682,111.5L682,111.5z M681,116.5C682.2,118.2,680.9,117.2,681,116.5L681,116.5z M669.1,174.4
		c0,0.2,0,0.3,0,0.3C669.1,174.7,669.1,174.6,669.1,174.4C669.1,174.4,669.1,174.4,669.1,174.4C669.1,174.4,669.1,174.4,669.1,174.4
		c1.1-13.4,3.5-26.6,8.7-39.1c-3,14.9-6,29.8-9,44.6C668.8,178,669,176.2,669.1,174.4z M669.2,172.8
		C669.2,172.7,669.2,172.7,669.2,172.8L669.2,172.8z M669.2,173c0,0.2,0,0.4,0,0.6C669.2,173.4,669.2,173.2,669.2,173z M669.2,173.7
		c0,0.1,0,0.1,0,0.2C669.1,173.9,669.2,173.8,669.2,173.7z M659.5,225.4C658.9,228.5,658.3,228.7,659.5,225.4L659.5,225.4z
		 M658.3,187.5c-0.4,4.7-0.5,15.9-3.6,20c1-5.9,2.1-11.9,3.2-17.9C658,189.1,658.1,188.4,658.3,187.5z M642,240.4
		C642,240.4,642,240.4,642,240.4c-1,2.6-0.3,0,0.2-1.4C642.2,239.6,642.1,240.1,642,240.4C642,240.3,642,240.2,642,240.4z
		 M642.9,331c0,0,0.1-1.9,0.3-2.5C643.2,329.8,644.2,330.6,642.9,331z M642.9,233c0-1,0.1-1.6,0.3-2.3
		C644.2,232.5,644.1,233.2,642.9,233z M642.5,219.2c-1,0.1-1-0.5,0-1.8V219.2z M647.4,211.1c-0.5-7.7,1.5-18.3,4.5-26.1
		c-0.9,6.3-2.2,13.2-4.2,18.9C647.6,206.3,647.5,208.7,647.4,211.1z M657.6,337.2c-2,7.3-2.8,19.6-7.5,25.7
		c4.5-11.8,3-30.6,11.9-40.4C660.4,327.4,658.9,332.3,657.6,337.2z M674.4,291.3c-0.2,0.3-0.5,0.8-0.7,1.4c0.1-1,0.5-1.9,1-2.7
		C674.8,290.5,674.6,291,674.4,291.3C674.5,291.2,674.5,291.1,674.4,291.3z M710.6,364.5c0.1,0.2,0.1,0.4,0.2,0.7
		C711,365.7,710.8,365,710.6,364.5z M710.4,363.8C710.4,363.8,710.4,363.8,710.4,363.8L710.4,363.8z M710.5,364
		c0,0.1,0.1,0.3,0.1,0.5C710.6,364.3,710.5,364.1,710.5,364z M722.3,287c-2.1,13.8-3.3,29.2-7.6,42.6c2.7-20.5,5.5-41.1,10.1-61.3
		c-0.7,6.3-1.5,12.4-2.4,18.6C722.5,285.4,722.7,284,722.3,287z"/>
	<path stroke="#000000" stroke-width="3" stroke-miterlimit="10" d="M672.5,291.3C672.5,291.3,672.5,291.3,672.5,291.3
		C672.5,291.4,672.5,291.4,672.5,291.3z"/>
	<polygon stroke="#000000" stroke-width="3" stroke-miterlimit="10" points="669.1,174.4 669.1,174.4 669.1,174.4 	"/>
	<path stroke="#000000" stroke-width="3" stroke-miterlimit="10" d="M659.5,225.4C659.2,226.2,659.3,226.2,659.5,225.4L659.5,225.4z
		"/>
	<path stroke="#000000" stroke-width="3" stroke-miterlimit="10" d="M806.6,353.7C806.6,353.7,806.6,353.7,806.6,353.7
		C805.9,354.7,804.9,356,806.6,353.7z"/>
	<path stroke="#000000" stroke-width="3" stroke-miterlimit="10" d="M804.5,335C804.5,335,804.5,334.9,804.5,335
		C804.5,334.9,804.5,335,804.5,335C804.5,335,804.5,335,804.5,335z"/>
	<path stroke="#000000" stroke-width="3" stroke-miterlimit="10" d="M830.7,244.9C829.2,242.8,829.9,243.8,830.7,244.9
		c-10.7-14.3-25.2-19.3-38.2-5.3c-7,7.5-12.1,16.5-17.3,25.3c-8.9,15.2-1.3-1.7-9.6,2.1c-26.4,0-35.5,67.8-30.9,87.3
		c4.3,18.2,16.3,37.9,37.4,37.9c17.6,0,28.1-16.1,37-29.1C830.3,332.4,856.3,279.5,830.7,244.9C831.5,246,832.2,247,830.7,244.9z
		 M795.8,246c-3.2,6-11.4,15.1-16,22.7C784.5,260,789.8,253,795.8,246z M791.3,261.6c-0.2,0.3-0.3,0.5-0.4,0.7
		c-1.7,2.7-3.6,5.4-5.4,8.1C787.1,267.2,789.1,264.3,791.3,261.6z M762.9,280.9c0,0.1,0,0.2,0,0.2
		C762.9,281.1,762.9,280.9,762.9,280.9C762.4,283.7,761.9,283.4,762.9,280.9z M761.3,298.6c-1,1.9-2,3.9-3,5.8
		C758.5,302,759.5,300,761.3,298.6z M756.1,280.9c0.8-1.5,1.9-2.7,3.3-3.6l-5.5,8.1C754.6,283.9,755.3,282.4,756.1,280.9z
		 M756.4,311.2c0.1-0.1,0.1-0.3,0.1-0.4C756.6,310.9,756.5,311,756.4,311.2z M756.6,310.8c0-0.1,0.1-0.2,0.1-0.2
		C756.7,310.6,756.7,310.7,756.6,310.8z M806.6,353.7C807.2,352.9,807.5,352.4,806.6,353.7c-3,4.1-5.3,7.5-7,10.2
		c1.4-5.5,9.7-20.8,13.5-19.9C811.1,347.3,808.9,350.5,806.6,353.7z M804.6,334.9C804.8,334.3,805.1,333.9,804.6,334.9
		c-0.6,1.3-0.3,0.7-0.1,0.1c-1.2,2.4-2.5,4.5-4.2,6.3c0-4.4,5.4-10.3,7.6-14C806.8,330,805.7,332.5,804.6,334.9z M807.8,338.5
		c-0.9,1.8-1.9,3.5-2.8,5.3C805.8,342.2,806.9,340.2,807.8,338.5z M821.9,263.8c-0.1,0.5-0.1,0.5-0.1,0.3
		c-5.8,36.9-22.6,93.2-62.4,106.9c-5-23.9,1.4-47.9,8.3-70.7c4.5,7.4,9.2,18.5,19.4,18.5c4.5,0-1.8-14.6-0.4-19.8
		c3.3-11.8,19.2-45.6,34.4-45.6C822.3,256.9,822.5,260.3,821.9,263.8z"/>
	<path stroke="#000000" stroke-width="3" stroke-miterlimit="10" d="M821.8,264.1c0-0.1,0-0.2,0.1-0.3
		C822,262.8,821.9,263.8,821.8,264.1z"/>
	<path stroke="#000000" stroke-width="3" stroke-miterlimit="10" d="M761.3,298.6C760.7,299.2,761,299.2,761.3,298.6L761.3,298.6z"
		/>
	<path stroke="#000000" stroke-width="3" stroke-miterlimit="10" d="M790.9,262.2c0.1-0.2,0.3-0.4,0.4-0.7
		C790.8,262.3,790.5,262.8,790.9,262.2z"/>
	<path stroke="#000000" stroke-width="3" stroke-miterlimit="10" d="M956.6,184.1c-4.3-2.5-3.7-11.1-10.4-12.6
		c-9.1-2.1-21.4-0.1-30.4,2.3c2.6-9.9,21-60.2,3.1-55.9c0-5.7-1.8-7.4-5.8-3.2c0.6-2.1,1.2-4.2,1.9-6.3c-1.3-0.7-2.7-1.6-4.1-2.3
		c-1.6,2.8-3.3,5.5-5.2,8.1c2.1-2.9,3.2-6.7,0.4-8.6c-6.6-4.3-10,8.9-11.8,12.7c-10.5,22.5-17,46-29.8,67.5
		c-7.7,2.3-15.7,3-23.2,5.9c-9.1,3-1.5,7.5-1.9,10.8c-2.5,19.4,27.7,3.4,24.3,18c-10.9,47.2-13.5,98-17.8,146.2
		c-2.3,25.9-3.5,51.9-3.1,77.8c0.1,10.6,0.4,21.2,3.1,31.5c3.9,15,11.5,15.7,22.8,23.8c0.7-1.4,1.4-2.7,2.1-4.1
		c1.2,2.9,3.2,3.3,6.1,1.1c5.2-2.3,1.1-14,0.7-16.5c-2.6-17.5-2.2-35.4-1.3-53c1.5-32.7,6-65.3,10.4-97.7c4.5-33.1,9.3-66.1,16-98.9
		c3.3-16,1.2-25.8,18-28.8c12.4-2.2,31.8-4.9,39.2-16.7C958.8,185,957.7,184.5,956.6,184.1z M852.2,396.1c0.1,0.1,0.4,0.4,0.8,0.9
		C852.6,396.6,852.3,396.3,852.2,396.1z M862.1,377c-0.2-1.7-2.3-4.1,0.3-6C862.3,373,862.2,375,862.1,377z M870.4,181.8
		c-0.3,0.7-1.1,4-1.4,1.8C869,182.4,869.5,181.8,870.4,181.8z M868.8,245.9C868.8,245.9,868.8,245.8,868.8,245.9
		C868.8,245.8,868.8,245.9,868.8,245.9z M868.8,245.5c0,0,0-0.1,0-0.1C868.8,245.4,868.8,245.4,868.8,245.5z M868.9,244.9
		c0-0.1,0-0.2,0.1-0.3C869,244.7,868.9,244.8,868.9,244.9z M869.1,243.7C869.1,243.6,869.1,243.5,869.1,243.7L869.1,243.7z
		 M869,244.1c0-0.1,0-0.2,0-0.2C869.1,244,869.1,244,869,244.1z M868.9,245.2c-0.5,3-1.2,5.9-1.9,8.9c1.2-7.8,2.5-15.6,4.1-23.3
		C870.3,235.5,869.7,240.4,868.9,245.2z M873.8,329c0-0.1,0-0.1,0-0.2C873.9,328.9,873.9,328.9,873.8,329z M873.9,328.6
		c0.1-0.3,0.1-0.6,0.1-0.6C874,328,874,328.2,873.9,328.6z M874.6,386.6c0,0.1,0,0.1,0,0.2C874.6,386.8,874.6,386.7,874.6,386.6z
		 M874.4,385.6c0,0.1,0,0.2,0,0.2C874.4,385.8,874.4,385.7,874.4,385.6z M875.8,375.5c0,0.2,0.1,0.5,0.1,0.9
		C875.9,376.1,875.9,375.8,875.8,375.5z M875.8,375c0,0,0,0.1,0,0.2C875.8,375.1,875.8,375,875.8,375z M873.5,330.7
		c0,0.2-0.1,0.4-0.1,0.6c0.3-2.6,1.5-18.8,2.7-19.1C875.6,318.4,874.7,324.6,873.5,330.7z M876.8,365.8
		C876.8,365.2,876.8,365.2,876.8,365.8L876.8,365.8z M886,280.6c0,0,0.1,0,0.1,0C886.1,280.7,886,280.6,886,280.6
		C886.7,280.6,888,281.5,886,280.6z M888,277c-0.1-0.3-1.5-1.1-1-3C889.1,274.3,887.5,275.3,888,277z M890.2,266.1
		c0-0.9-1.3-4.1,1-4.1L890.2,266.1z M891.2,261.6c-0.3-0.7-0.2-1.4,0.4-1.9L891.2,261.6z M898.9,128.7c0,0.9-0.2,1.7-0.7,2.3
		L898.9,128.7z M897.5,208c0,1.5-0.3,2.4-0.9,2.9c0.3-1.4,0.9-2.8,0.9-4.2V208z M900.5,116.5l-0.9,2.7c0.2-1.2,0.9-2.4,0.9-3.6
		V116.5z M902.1,122.4c0-0.5,0.2-0.9,0.5-1.4C902.6,121.4,902.5,121.9,902.1,122.4z M902.7,142.2c0.1-0.2,0.3-0.4,0.4-0.6
		C903,141.7,902.9,141.9,902.7,142.2z"/>
	<path stroke="#000000" stroke-width="3" stroke-miterlimit="10" d="M441.5-165.9c-7,0-7,10,0,10
		C447.5-155.9,447.5-165.9,441.5-165.9z"/>
</g>
</svg>
